<svg xmlns="http://www.w3.org/2000/svg" width="334.595" height="81.041" viewBox="0 0 334.595 81.041">
  <g id="Group_20" data-name="Group 20" transform="translate(-293.405 -268.175)">
    <text id="HAARENTFERNUNG" transform="translate(417.478 340.408)" fill="#c39435" font-size="7" font-family="JosefinSlabRoman-Regular, Josefin Slab"><tspan x="0" y="0">HAARENTFERNUNG</tspan></text>
    <text id="TANNING" transform="translate(505 340.341)" fill="#c39435" font-size="7" font-family="JosefinSlabRoman-Regular, Josefin Slab"><tspan x="0" y="0">TANNING</tspan></text>
    <text id="_HYDRAFACIAL" data-name=" HYDRAFACIAL" transform="translate(558.431 340.341)" fill="#c39435" font-size="7" font-family="JosefinSlabRoman-Regular, Josefin Slab"><tspan x="0" y="0" xml:space="preserve"> HYDRAFACIAL</tspan></text>
    <circle id="Ellipse_11" data-name="Ellipse 11" cx="1.266" cy="1.266" r="1.266" transform="translate(493.973 336.376)" fill="#c39435"/>
    <circle id="Ellipse_12" data-name="Ellipse 12" cx="1.266" cy="1.266" r="1.266" transform="translate(547.404 336.376)" fill="#c39435"/>
    <text id="STUDIO_BESA" data-name="STUDIO BESA" transform="translate(399 327.376)" fill="#c39435" font-size="37" font-family="JosefinSlabRoman-Regular, Josefin Slab"><tspan x="0" y="0">STUDIO BESA</tspan></text>
    <g id="Group_19" data-name="Group 19" transform="translate(294.008 268.933)">
      <path id="Path_10" data-name="Path 10" d="M466.218,251.151a7.8,7.8,0,0,1,8.729-5.935c7.331.7,8.835-.257,9.358-.03" transform="translate(-419.806 -200.299)" fill="none" stroke="#c39435" stroke-linecap="round" stroke-width="1.2"/>
      <path id="Path_11" data-name="Path 11" d="M469.277,251.16a7.8,7.8,0,0,0-8.729-5.935c-7.331.7-8.9-.277-9.426-.052" transform="translate(-430.25 -200.307)" fill="none" stroke="#c39435" stroke-linecap="round" stroke-width="1.2"/>
      <path id="Path_12" data-name="Path 12" d="M465.835,252.362a1.807,1.807,0,0,0-1.046-.36c-.942-.034-2.433.359-4.191.36-4.79.007-5.761-3.665-5.761-3.665" transform="translate(-427.68 -197.844)" fill="none" stroke="#c39435" stroke-linecap="round" stroke-width="1.2"/>
      <path id="Path_13" data-name="Path 13" d="M466.734,252.362a1.809,1.809,0,0,1,1.047-.36c.941-.034,2.433.359,4.189.36,4.79.007,5.761-3.665,5.761-3.665" transform="translate(-419.449 -197.844)" fill="none" stroke="#c39435" stroke-linecap="round" stroke-width="1.2"/>
      <path id="Path_14" data-name="Path 14" d="M462.017,255.979s.533-.325.822-.046a3.64,3.64,0,0,0,2.447,1.1,3.832,3.832,0,0,0,2.553-1.108c.3-.277.858.051.858.051" transform="translate(-422.712 -192.918)" fill="none" stroke="#c39435" stroke-linecap="round" stroke-width="1.2"/>
      <line id="Line_1" data-name="Line 1" x2="11.172" transform="translate(36.9 69.362)" fill="none" stroke="#c39435" stroke-linecap="round" stroke-width="1.2"/>
      <line id="Line_2" data-name="Line 2" x2="3.84" transform="translate(40.653 72.323)" fill="none" stroke="#c39435" stroke-linecap="round" stroke-width="1.2"/>
      <path id="Path_15" data-name="Path 15" d="M468.431,231.457s-7.428.5-9.678-.282c-1.924-.672-3.045-5.929-3.045-5.929s5.516-2.5,6.947-.941A60.131,60.131,0,0,1,468.431,231.457Z" transform="translate(-427.078 -215.075)" fill="none" stroke="#c39435" stroke-width="1.1"/>
      <path id="Path_16" data-name="Path 16" d="M466.835,230.262s-6.455-1.056-7.482-1.658c-1.237-.724-1.9-3.037-1.9-3.037s2.619-.878,4.11.025C462.106,225.92,466.835,230.262,466.835,230.262Z" transform="translate(-425.868 -214.114)" fill="none" stroke="#c39435" stroke-width="1.1"/>
      <path id="Path_17" data-name="Path 17" d="M463.816,231.45s7.295.678,9.579,0c1.952-.58,3.323-5.78,3.323-5.78s-5.394-2.758-6.9-1.267A46.2,46.2,0,0,0,463.816,231.45Z" transform="translate(-419.665 -214.96)" fill="none" stroke="#c39435" stroke-linecap="round" stroke-width="1.1"/>
      <path id="Path_18" data-name="Path 18" d="M463.528,230.309s6.5-.963,7.55-1.516c1.269-.665,2.039-2.944,2.039-2.944s-2.575-1-4.106-.168C468.454,225.983,463.528,230.309,463.528,230.309Z" transform="translate(-419.082 -213.999)" fill="none" stroke="#c39435" stroke-linecap="round" stroke-width="1.1"/>
      <path id="Path_19" data-name="Path 19" d="M466.141,236.02s-4.218-4.546-5.162-7.823a5.247,5.247,0,0,1,1.1-5.084c1.457-1.831,4.13-4.472,4.13-4.472s2.355,2.149,4.458,4.472c1.771,1.954,1.482,5.23.388,7.084C470.138,231.753,467.463,235.613,466.141,236.02Z" transform="translate(-423.598 -218.641)" fill="none" stroke="#c39435" stroke-width="1.1"/>
      <path id="Path_20" data-name="Path 20" d="M465.376,234.077a63.819,63.819,0,0,1-2.925-6.627c-.284-.981-.442-3.081.35-4.074.831-1.044,2.386-2.551,2.386-2.551a29.053,29.053,0,0,1,2.59,2.551c1,1.128.545,2.858.22,4.044C467.726,228.414,465.376,234.077,465.376,234.077Z" transform="translate(-422.573 -217.131)" fill="none" stroke="#c39435" stroke-width="1.1"/>
      <path id="Path_21" data-name="Path 21" d="M481.15,228.821c.16-2.011,4.049,13.661-12.414,22.125-17.407,8.952-26.7,19.386-19.022,31.732a15.4,15.4,0,0,0,17.183,6.531c-.54.292-4.394,2.533-10.844,1.727-7.994-1-18.293-6.489-17.185-20.836,1.044-13.512,19.855-17.787,29.2-25.8C475.21,238.182,480.99,230.831,481.15,228.821Z" transform="translate(-438.786 -211.441)" fill="none" stroke="#c39435" stroke-linecap="round" stroke-width="1.2"/>
      <path id="Path_22" data-name="Path 22" d="M465.608,277.853s-20.075-12.045-14.019-32.695" transform="translate(-430.716 -200.293)" fill="none" stroke="#c39435" stroke-linecap="round" stroke-width="1.2"/>
      <g id="Group_17" data-name="Group 17" transform="translate(4.013 16.668)">
        <path id="Path_23" data-name="Path 23" d="M479.631,228.811a54.787,54.787,0,0,0-29.763,5.236c-10.972,5.473-10.5,14.525-4.538,18.853a14.393,14.393,0,0,0,4.336,1.638" transform="translate(-441.158 -228.492)" fill="none" stroke="#c39435" stroke-linecap="round" stroke-width="1.2"/>
        <path id="Path_24" data-name="Path 24" d="M478.2,228.913s-13.666.741-25.778,6.783c-8.847,4.414-11.915,13.656-7.111,17.144a11.6,11.6,0,0,0,3.5,1.321" transform="translate(-439.849 -228.202)" fill="none" stroke="#c39435" stroke-linecap="round" stroke-width="1.2"/>
      </g>
      <g id="Group_18" data-name="Group 18" transform="translate(42.364 16.668)">
        <path id="Path_25" data-name="Path 25" d="M463.825,228.811a54.787,54.787,0,0,1,29.763,5.236c10.972,5.473,10.495,14.525,4.538,18.853a14.429,14.429,0,0,1-4.336,1.638" transform="translate(-463.825 -228.492)" fill="none" stroke="#c39435" stroke-linecap="round" stroke-width="1.2"/>
        <path id="Path_26" data-name="Path 26" d="M463.9,228.913s13.664.741,25.778,6.783c8.847,4.414,10.813,13.61,6.011,17.1a6.028,6.028,0,0,1-2.4,1.367" transform="translate(-463.775 -228.202)" fill="none" stroke="#c39435" stroke-linecap="round" stroke-width="1.2"/>
      </g>
      <path id="Path_27" data-name="Path 27" d="M464.236,228.6c.12,1.186-1.727,12.439,12.515,21.533,16.5,10.536,26.516,20.237,18.841,32.583-7.008,10.344-17.089,6.505-17.185,6.531a18.163,18.163,0,0,0,10.845,1.727c7.994-1,18.291-6.489,17.183-20.836-1.042-13.512-19.853-17.787-29.2-25.8a70.135,70.135,0,0,1-10.979-12.673C465.026,229.894,464.116,227.412,464.236,228.6Z" transform="translate(-421.262 -211.478)" fill="none" stroke="#c39435" stroke-linecap="round" stroke-width="1.2"/>
      <path id="Path_28" data-name="Path 28" d="M482.75,245.368c3.836,19.127-14.2,32.34-14.2,32.34" transform="translate(-418.189 -200.148)" fill="none" stroke="#c39435" stroke-linecap="round" stroke-width="1.2"/>
    </g>
  </g>
</svg>
