<svg xmlns="http://www.w3.org/2000/svg" width="92.857" height="87.037" viewBox="0 0 92.857 87.037">
  <g id="Group_178" data-name="Group 178" transform="translate(0.503 0.689)">
    <path id="Path_10" data-name="Path 10" d="M466.218,251.616a8.4,8.4,0,0,1,9.4-6.394c7.9.751,9.519-.277,10.082-.033" transform="translate(-416.215 -196.83)" fill="none" stroke="#c39435" stroke-linecap="round" stroke-width="1"/>
    <path id="Path_11" data-name="Path 11" d="M470.682,251.626a8.4,8.4,0,0,0-9.4-6.394c-7.9.751-9.59-.3-10.155-.057" transform="translate(-428.636 -196.84)" fill="none" stroke="#c39435" stroke-linecap="round" stroke-width="1"/>
    <path id="Path_12" data-name="Path 12" d="M466.685,252.645a1.947,1.947,0,0,0-1.126-.388c-1.015-.036-2.621.386-4.515.388-5.16.007-6.207-3.948-6.207-3.948" transform="translate(-425.58 -193.911)" fill="none" stroke="#c39435" stroke-linecap="round" stroke-width="1"/>
    <path id="Path_13" data-name="Path 13" d="M466.734,252.645a1.948,1.948,0,0,1,1.128-.388c1.013-.036,2.621.386,4.513.388,5.16.007,6.207-3.948,6.207-3.948" transform="translate(-415.791 -193.911)" fill="none" stroke="#c39435" stroke-linecap="round" stroke-width="1"/>
    <path id="Path_14" data-name="Path 14" d="M462.017,255.992s.574-.35.886-.049a3.922,3.922,0,0,0,2.636,1.188,4.129,4.129,0,0,0,2.751-1.194c.319-.3.924.055.924.055" transform="translate(-419.672 -188.052)" fill="none" stroke="#c39435" stroke-linecap="round" stroke-width="1"/>
    <line id="Line_1" data-name="Line 1" x2="12.036" transform="translate(39.754 74.727)" fill="none" stroke="#c39435" stroke-linecap="round" stroke-width="1"/>
    <line id="Line_2" data-name="Line 2" x2="4.137" transform="translate(43.797 77.918)" fill="none" stroke="#c39435" stroke-linecap="round" stroke-width="1"/>
    <path id="Path_15" data-name="Path 15" d="M469.415,232.05s-8,.542-10.427-.3c-2.072-.724-3.281-6.387-3.281-6.387s5.942-2.694,7.484-1.014A64.787,64.787,0,0,1,469.415,232.05Z" transform="translate(-424.864 -214.401)" fill="none" stroke="#c39435" stroke-width="1"/>
    <path id="Path_16" data-name="Path 16" d="M467.561,230.655s-6.954-1.138-8.06-1.787c-1.332-.78-2.043-3.272-2.043-3.272s2.822-.946,4.428.027C462.467,225.977,467.561,230.655,467.561,230.655Z" transform="translate(-423.424 -213.258)" fill="none" stroke="#c39435" stroke-width="1"/>
    <path id="Path_17" data-name="Path 17" d="M463.816,232.029s7.859.731,10.32,0c2.1-.625,3.58-6.227,3.58-6.227s-5.811-2.971-7.43-1.365A49.767,49.767,0,0,0,463.816,232.029Z" transform="translate(-416.249 -214.264)" fill="none" stroke="#c39435" stroke-linecap="round" stroke-width="1"/>
    <path id="Path_18" data-name="Path 18" d="M463.528,230.693s7-1.037,8.134-1.633c1.367-.716,2.2-3.172,2.2-3.172s-2.774-1.077-4.424-.18C468.835,226.032,463.528,230.693,463.528,230.693Z" transform="translate(-415.644 -213.121)" fill="none" stroke="#c39435" stroke-linecap="round" stroke-width="1"/>
    <path id="Path_19" data-name="Path 19" d="M466.56,237.365s-4.544-4.9-5.561-8.429a5.653,5.653,0,0,1,1.188-5.478c1.569-1.972,4.449-4.818,4.449-4.818s2.537,2.315,4.8,4.818c1.908,2.105,1.6,5.634.417,7.632C470.865,232.768,467.983,236.926,466.56,237.365Z" transform="translate(-420.726 -218.641)" fill="none" stroke="#c39435" stroke-width="1"/>
    <path id="Path_20" data-name="Path 20" d="M465.62,235.1a68.747,68.747,0,0,1-3.152-7.14c-.306-1.057-.476-3.319.377-4.389.9-1.125,2.57-2.749,2.57-2.749a31.3,31.3,0,0,1,2.791,2.749c1.075,1.216.587,3.079.237,4.356C468.152,229,465.62,235.1,465.62,235.1Z" transform="translate(-419.506 -216.845)" fill="none" stroke="#c39435" stroke-width="1"/>
    <path id="Path_21" data-name="Path 21" d="M484.427,228.834c.172-2.166,4.362,14.717-13.374,23.837-18.753,9.645-28.762,20.886-20.494,34.187,7.548,11.145,19.095,6.721,18.512,7.036s-4.734,2.729-11.682,1.861c-8.613-1.074-19.708-6.991-18.514-22.448,1.125-14.557,21.391-19.163,31.456-27.791C478.028,238.92,484.255,231,484.427,228.834Z" transform="translate(-438.787 -210.111)" fill="none" stroke="#c39435" stroke-linecap="round" stroke-width="1"/>
    <path id="Path_22" data-name="Path 22" d="M466.78,280.382s-21.628-12.977-15.1-35.224" transform="translate(-429.189 -196.823)" fill="none" stroke="#c39435" stroke-linecap="round" stroke-width="1"/>
    <g id="Group_17" data-name="Group 17" transform="translate(4.323 17.957)">
      <path id="Path_23" data-name="Path 23" d="M482.607,228.836a59.025,59.025,0,0,0-32.065,5.642c-11.821,5.9-11.307,15.649-4.889,20.312a15.507,15.507,0,0,0,4.672,1.765" transform="translate(-441.158 -228.492)" fill="none" stroke="#c39435" stroke-linecap="round" stroke-width="1"/>
      <path id="Path_24" data-name="Path 24" d="M480.92,228.913s-14.723.8-27.772,7.308c-9.531,4.756-12.836,14.712-7.661,18.471a12.5,12.5,0,0,0,3.768,1.424" transform="translate(-439.602 -228.147)" fill="none" stroke="#c39435" stroke-linecap="round" stroke-width="1"/>
    </g>
    <g id="Group_18" data-name="Group 18" transform="translate(45.641 17.957)">
      <path id="Path_25" data-name="Path 25" d="M463.825,228.836a59.025,59.025,0,0,1,32.065,5.642c11.821,5.9,11.307,15.649,4.889,20.312a15.544,15.544,0,0,1-4.672,1.765" transform="translate(-463.825 -228.492)" fill="none" stroke="#c39435" stroke-linecap="round" stroke-width="1"/>
      <path id="Path_26" data-name="Path 26" d="M463.9,228.913s14.721.8,27.772,7.308c9.531,4.756,11.649,14.663,6.476,18.422a6.492,6.492,0,0,1-2.583,1.472" transform="translate(-463.766 -228.147)" fill="none" stroke="#c39435" stroke-linecap="round" stroke-width="1"/>
    </g>
    <path id="Path_27" data-name="Path 27" d="M464.238,228.622c.129,1.277-1.861,13.4,13.483,23.2,17.774,11.351,28.567,21.8,20.3,35.1-7.55,11.145-18.411,7.009-18.514,7.036s4.734,2.729,11.684,1.861c8.613-1.074,19.706-6.99,18.512-22.448-1.123-14.557-21.389-19.163-31.454-27.791A75.559,75.559,0,0,1,466.42,231.93C465.088,230.018,464.109,227.345,464.238,228.622Z" transform="translate(-417.939 -210.177)" fill="none" stroke="#c39435" stroke-linecap="round" stroke-width="1"/>
    <path id="Path_28" data-name="Path 28" d="M483.848,245.368c4.132,20.607-15.293,34.841-15.293,34.841" transform="translate(-414.292 -196.65)" fill="none" stroke="#c39435" stroke-linecap="round" stroke-width="1"/>
  </g>
</svg>
