<svg xmlns="http://www.w3.org/2000/svg" width="106.458" height="107.853" viewBox="0 0 106.458 107.853">
  <g id="Group_267" data-name="Group 267" transform="translate(2.233 1.5)">
    <path id="Path_280" data-name="Path 280" d="M76.559,337.075H173.2a3.044,3.044,0,0,0,3.041-3.041V320.595H73.517v13.438A3.041,3.041,0,0,0,76.559,337.075Z" transform="translate(-73.517 -232.222)" fill="none" stroke="#fff" stroke-linecap="round" stroke-width="3"/>
    <path id="Path_281" data-name="Path 281" d="M73.517,350.206v-34.78a1.816,1.816,0,0,1,1.444-1.777l10.422-2.171a1.172,1.172,0,0,1,1.426,1.086,21.229,21.229,0,0,1-2.84,11.87c-4.833,7.648,1.071,16.056,8.086,15.471,7.417-.618,9.125-9.406,6.591-16-1.667-4.339-4.581-6.741-3.206-12.6a.291.291,0,0,1,.453-.179c1.016.844,7.611,2.936,9.845,3.63a1.8,1.8,0,0,0,1.389-.117c2.358-1.217,10.682-5.2,17.752-4.785a56.652,56.652,0,0,1,16.845,4.518.974.974,0,0,0,.808.044c2.332-.863,13.789-5.016,17.891-4.968,3,.036,10.536,3.2,14.012,4.727a3.024,3.024,0,0,1,1.806,2.778v33.256Z" transform="translate(-73.517 -261.833)" fill="none" stroke="#fff" stroke-linecap="round" stroke-width="3"/>
    <path id="Path_282" data-name="Path 282" d="M79.491,311.047h21.63l7.21-14.626H73.517Z" transform="translate(-73.517 -296.421)" fill="none" stroke="#fff" stroke-linecap="round" stroke-width="3"/>
    <line id="Line_40" data-name="Line 40" y1="24.926" transform="translate(10.3 14.626)" fill="none" stroke="#fff" stroke-linecap="round" stroke-width="3"/>
    <line id="Line_41" data-name="Line 41" y1="24.926" transform="translate(23.69 14.626)" fill="none" stroke="#fff" stroke-linecap="round" stroke-width="3"/>
    <path id="Path_283" data-name="Path 283" d="M102.683,303.068c-.439,0-.044,14.082-1.546,23.312-.976,6-3.886,12.225-5.352,17.895-1.821,7.041,2.522,11.545,6.9,11.578,4.61.029,8.986-3.144,6.7-11.578-1.32-4.873-4.018-9.563-5.356-17.895C103.111,320.707,103.045,303.068,102.683,303.068Z" transform="translate(-15.51 -278.768)" fill="none" stroke="#fff" stroke-linecap="round" stroke-width="3"/>
    <path id="Path_284" data-name="Path 284" d="M92.884,303.068c-.435,0-.04,14.082-1.543,23.312-.976,6-3.886,12.225-5.352,17.895-1.821,7.041,2.519,11.545,6.895,11.578,4.613.029,8.986-3.144,6.7-11.578-1.323-4.873-4.018-9.563-5.359-17.895C93.315,320.707,93.25,303.068,92.884,303.068Z" transform="translate(-41.525 -278.768)" fill="none" stroke="#fff" stroke-linecap="round" stroke-width="3"/>
  </g>
</svg>
