<svg xmlns="http://www.w3.org/2000/svg" width="157.262" height="138.078" viewBox="0 0 157.262 138.078">
  <g id="Group_271" data-name="Group 271" transform="translate(-850.917 -1257.127)">
    <path id="Path_285" data-name="Path 285" d="M217.155,640.061s-25.059-4.639-66.026-33.012c0,0-1.989-3.58-8.618-1.327s-13.789-2.121-13.127-9.148-7.556-13.391-10.739-16.441a9.879,9.879,0,0,1-1.722-12.462c2.651-4.773,4.906-1.327,4.773,0s16.042,18.163,34.736,24.394,62.049,17.5,66.954,16.839" transform="translate(737.14 753.396)" fill="none" stroke="#fff" stroke-linecap="round" stroke-width="3"/>
    <path id="Path_286" data-name="Path 286" d="M184.272,624.034s-10.932-4.67-24.522-39.146c0,0,.077-4.1-6.789-5.472s-10.862-8.755-6.762-14.5.183-15.376-1.038-19.611a9.879,9.879,0,0,1,4.764-11.644c4.689-2.8,4.909,1.314,4.129,2.4s4.76,23.761,17.8,38.534,44.886,46.276,49.463,48.166" transform="translate(754.439 734.053)" fill="none" stroke="#fff" stroke-linecap="round" stroke-width="3"/>
    <g id="Group_270" data-name="Group 270" transform="translate(940.368 1257.627)">
      <path id="Path_287" data-name="Path 287" d="M182.885,570.9l-1.458-3.207,3.534-1.5a4.012,4.012,0,0,1,2.663-4.54c3.414-1.493,11.369-4.708,11.369-4.708l.352-5.218.035-.515-.332-.454-5.47-7.5,1.5-14.452a1.875,1.875,0,0,1,2.078-1.812c1.989.132,12.374,1.193,12.374,1.193s2.121.265,1.812,2.076-1.944,14.894-1.944,14.894l-6.309,5.8-.807.742.018.691.072,3.065,6.63-2.917,3.845,8.8,8.971-3.625,1.679,4.022-4.729,2.166,12.309,20.329-8.618,3.754L210.1,566.943l-3.843,1.7-1.161-2.453,2.536-1.076-.5-1.226-15.363,6.612a4.558,4.558,0,0,1-5.536-1.061Z" transform="translate(-163.991 -526.979)" fill="none" stroke="#fff" stroke-linecap="round" stroke-width="1"/>
      <path id="Path_288" data-name="Path 288" d="M201.544,543.208l1.061,2.486-2.412,1.068-1.1-2.509Z" transform="translate(-153.482 -517.326)" fill="none" stroke="#fff" stroke-linecap="round" stroke-width="1"/>
      <line id="Line_42" data-name="Line 42" y1="1.75" x2="4.148" transform="translate(48.554 25.286)" fill="none" stroke="#fff" stroke-linecap="round" stroke-width="1"/>
      <path id="Path_289" data-name="Path 289" d="M203.208,542.509l1.193,2.784,3.779-1.624-1.127-2.685Z" transform="translate(-151.036 -518.648)" fill="none" stroke="#fff" stroke-linecap="round" stroke-width="1"/>
      <line id="Line_43" data-name="Line 43" x2="4.143" y2="8.85" transform="translate(23.633 34.666)" fill="none" stroke="#fff" stroke-linecap="round" stroke-width="1"/>
      <line id="Line_44" data-name="Line 44" x2="3.929" y2="8.558" transform="translate(31.461 31.483)" fill="none" stroke="#fff" stroke-linecap="round" stroke-width="1"/>
      <line id="Line_45" data-name="Line 45" x2="2.185" y2="4.114" transform="translate(39.035 28.214)" fill="none" stroke="#fff" stroke-linecap="round" stroke-width="1"/>
      <line id="Line_46" data-name="Line 46" x2="2.185" y2="4.114" transform="translate(40.889 27.47)" fill="none" stroke="#fff" stroke-linecap="round" stroke-width="1"/>
      <line id="Line_47" data-name="Line 47" x2="2.185" y2="4.114" transform="translate(42.638 26.762)" fill="none" stroke="#fff" stroke-linecap="round" stroke-width="1"/>
      <line id="Line_48" data-name="Line 48" y1="2.041" x2="4.733" transform="translate(52.602 41.702)" fill="none" stroke="#fff" stroke-linecap="round" stroke-width="1"/>
      <line id="Line_49" data-name="Line 49" y1="2.041" x2="4.733" transform="translate(56.028 46.971)" fill="none" stroke="#fff" stroke-linecap="round" stroke-width="1"/>
      <line id="Line_50" data-name="Line 50" y1="2.041" x2="4.733" transform="translate(59.286 52.625)" fill="none" stroke="#fff" stroke-linecap="round" stroke-width="1"/>
      <line id="Line_51" data-name="Line 51" y1="0.036" x2="3.15" transform="translate(35.199 27.011)" fill="none" stroke="#fff" stroke-linecap="round" stroke-width="1"/>
      <path id="Path_290" data-name="Path 290" d="M194.54,551.822s3.767,8.32,4.992,11.473a1.363,1.363,0,0,1-.632,1.863,1.3,1.3,0,0,1-1.8-.765c-.187-.373-.987-1.466-1.832-1.037-.9.459-.9,2.536,1.493,3.863a3.351,3.351,0,0,0,2.837.107c2.206-.947,2.9-2.424,1.574-5.732-1.228-3.068-4.855-10.663-4.855-10.663Z" transform="translate(-156.192 -512.732)" fill="none" stroke="#fff" stroke-linecap="round" stroke-width="1"/>
      <line id="Line_52" data-name="Line 52" x1="13.878" y1="4.198" transform="translate(0 38.455)" fill="none" stroke="#fff" stroke-linecap="round" stroke-width="1"/>
      <line id="Line_53" data-name="Line 53" x1="10.314" y2="4.234" transform="translate(4.118 44.264)" fill="none" stroke="#fff" stroke-linecap="round" stroke-width="1"/>
      <line id="Line_54" data-name="Line 54" x1="5.397" y2="13" transform="translate(9.696 45.838)" fill="none" stroke="#fff" stroke-linecap="round" stroke-width="1"/>
      <circle id="Ellipse_733" data-name="Ellipse 733" cx="1.746" cy="1.746" r="1.746" transform="translate(49.874 38.296)" fill="none" stroke="#fff" stroke-linecap="round" stroke-width="1"/>
    </g>
  </g>
</svg>
