<svg xmlns="http://www.w3.org/2000/svg" width="170.4" height="131.597" viewBox="0 0 170.4 131.597">
  <g id="Group_273" data-name="Group 273" transform="translate(-1936.269 -13011.146)">
    <g id="Group_272" data-name="Group 272" transform="translate(1937.771 13012.68)">
      <path id="Path_291" data-name="Path 291" d="M382.454,310.986s1.465,2.086,2.055,2.94c2.278,3.285,10.077,17.292,1.274,26.767-20.639,18.672-47.163-4.814-40.161-5.233s17.111-16.648,14.879-36.846c-9.191-83.187,39.875-71.182,42.973-72.207,0,0,20.419-16.622,42.033,1.82s22.865,40.7,16.957,67.391,9.255,37.312,10.975,42.365-45.423,22.258-46.517-10.562" transform="translate(-344.475 -219.53)" fill="none" stroke="#fff" stroke-linecap="round" stroke-width="3"/>
      <path id="Path_292" data-name="Path 292" d="M499.888,354.532h-6.126l-2.407,8.971h8.533Z" transform="translate(-394.591 -265.535)" fill="none" stroke="#fff" stroke-linecap="round" stroke-linejoin="round" stroke-width="3"/>
      <path id="Path_293" data-name="Path 293" d="M504.324,352.6l3.063-3.72h18.161l2.407,3.72v10.065l-2.626,2.188H507.606l-3.282-3.282Z" transform="translate(-399.026 -263.601)" fill="#fff" stroke="#fff" stroke-linecap="round" stroke-linejoin="round" stroke-width="3"/>
      <path id="Path_294" data-name="Path 294" d="M540.238,361c.875.109,6.565-.766,7.877,2.516s.656,20.568.875,24.069,10.284,9.189,14.441,0-3.064-17.067,2.625-20.568,12.253-1.313,12.253-1.313" transform="translate(-411.31 -267.737)" fill="none" stroke="#fff" stroke-linecap="round" stroke-width="3"/>
      <path id="Path_295" data-name="Path 295" d="M483.33,348.879s-3.282,2.626-3.282,8.533a13.586,13.586,0,0,0,3.282,8.533" transform="translate(-390.723 -263.601)" fill="none" stroke="#fff" stroke-linecap="round" stroke-width="3"/>
      <path id="Path_296" data-name="Path 296" d="M477.169,339.464s-5.538,4.431-5.538,14.4a22.929,22.929,0,0,0,5.538,14.4" transform="translate(-387.845 -260.381)" fill="none" stroke="#fff" stroke-linecap="round" stroke-width="3"/>
      <line id="Line_55" data-name="Line 55" x2="13.128" transform="translate(59.786 99.282)" fill="none" stroke="#fff" stroke-linecap="round" stroke-width="3"/>
      <line id="Line_56" data-name="Line 56" x2="6.564" transform="translate(63.068 87.029)" fill="none" stroke="#fff" stroke-linecap="round" stroke-width="3"/>
      <path id="Path_297" data-name="Path 297" d="M390.6,301.658s1.969,27.351,3.5,31.07,17.723,24.287,22.1,27.569,13.742,4.86,20.787,0a24.718,24.718,0,0,0,5.47-4.964" transform="translate(-360.129 -247.45)" fill="none" stroke="#fff" stroke-linecap="round" stroke-width="3"/>
      <path id="Path_298" data-name="Path 298" d="M419.026,320.823c-13.894,7.221-17.177-.875-17.177-.875a4.005,4.005,0,0,1-3.938,1.936" transform="translate(-362.631 -253.706)" fill="none" stroke="#fff" stroke-linecap="round" stroke-width="2"/>
      <path id="Path_299" data-name="Path 299" d="M403.383,321.915s-1.4,2.371-3.477,1.879" transform="translate(-362.655 -253.737)" fill="none" stroke="#fff" stroke-linecap="round" stroke-width="1"/>
      <path id="Path_300" data-name="Path 300" d="M405.264,323.394s-1.4,2.371-3.477,1.878" transform="translate(-361.983 -253.585)" fill="none" stroke="#fff" stroke-linecap="round" stroke-width="1"/>
      <path id="Path_301" data-name="Path 301" d="M456.616,320.823c13.895,7.221,17.177-.875,17.177-.875a4.006,4.006,0,0,0,3.939,1.936" transform="translate(-382.709 -253.706)" fill="none" stroke="#fff" stroke-linecap="round" stroke-width="2"/>
      <path id="Path_302" data-name="Path 302" d="M481.427,321.915s1.4,2.371,3.477,1.879" transform="translate(-392.102 -253.746)" fill="none" stroke="#fff" stroke-linecap="round" stroke-width="1"/>
      <path id="Path_303" data-name="Path 303" d="M479.546,323.394a5.036,5.036,0,0,0,1.913,1.736,2.348,2.348,0,0,0,1.564.142" transform="translate(-392.332 -253.585)" fill="none" stroke="#fff" stroke-linecap="round" stroke-width="1"/>
      <path id="Path_304" data-name="Path 304" d="M388.641,291.627s-1.532-32.6,34.79-33.7,38.429,32.64,38.429,32.64a15.806,15.806,0,0,0,.206-1.97c.843-9.474,1.245-43.151-34.258-43.142C380.318,245.472,388.641,291.627,388.641,291.627Z" transform="translate(-359.268 -228.229)" fill="none" stroke="#fff" stroke-linecap="round" stroke-width="3"/>
      <path id="Path_305" data-name="Path 305" d="M386.752,315.266s-8.314-4.1-8.023,2.611,8.023,20.568,11.3,19.036" transform="translate(-356.067 -251.635)" fill="none" stroke="#fff" stroke-linecap="round" stroke-width="3"/>
      <path id="Path_306" data-name="Path 306" d="M497.526,313.928s6.035-3.55,6.026,3.889c-.009,6.717-8.023,20.568-11.3,19.036" transform="translate(-394.896 -251.574)" fill="none" stroke="#fff" stroke-linecap="round" stroke-width="3"/>
    </g>
  </g>
</svg>
