<svg xmlns="http://www.w3.org/2000/svg" width="100.271" height="101.538" viewBox="0 0 100.271 101.538">
  <g id="Group_267" data-name="Group 267" transform="translate(2.233 1.5)">
    <path id="Path_280" data-name="Path 280" d="M76.375,336.082H167.2a2.86,2.86,0,0,0,2.858-2.858V320.595H73.517v12.629A2.858,2.858,0,0,0,76.375,336.082Z" transform="translate(-73.517 -237.544)" fill="none" stroke="#fff" stroke-linecap="round" stroke-width="3"/>
    <path id="Path_281" data-name="Path 281" d="M73.517,347.751V315.066a1.706,1.706,0,0,1,1.357-1.67l9.795-2.041a1.1,1.1,0,0,1,1.34,1.02,19.951,19.951,0,0,1-2.669,11.155c-4.542,7.187,1.007,15.089,7.6,14.539,6.971-.581,8.575-8.84,6.194-15.034-1.567-4.078-4.3-6.335-3.013-11.846a.274.274,0,0,1,.426-.168c.955.794,7.153,2.759,9.252,3.411a1.693,1.693,0,0,0,1.305-.11c2.216-1.144,10.039-4.885,16.683-4.5a53.238,53.238,0,0,1,15.831,4.246.916.916,0,0,0,.759.041c2.192-.811,12.959-4.713,16.813-4.669,2.817.034,9.9,3.006,13.168,4.442a2.842,2.842,0,0,1,1.7,2.611v31.253Z" transform="translate(-73.517 -264.701)" fill="none" stroke="#fff" stroke-linecap="round" stroke-width="3"/>
    <path id="Path_282" data-name="Path 282" d="M79.131,310.166H99.458l6.776-13.745H73.517Z" transform="translate(-73.517 -296.421)" fill="none" stroke="#fff" stroke-linecap="round" stroke-width="3"/>
    <line id="Line_40" data-name="Line 40" y1="23.424" transform="translate(9.68 13.745)" fill="none" stroke="#fff" stroke-linecap="round" stroke-width="3"/>
    <line id="Line_41" data-name="Line 41" y1="23.424" transform="translate(22.263 13.745)" fill="none" stroke="#fff" stroke-linecap="round" stroke-width="3"/>
    <path id="Path_283" data-name="Path 283" d="M102.242,303.068c-.412,0-.041,13.234-1.453,21.908-.917,5.641-3.652,11.488-5.03,16.817-1.711,6.617,2.37,10.849,6.483,10.88,4.332.028,8.445-2.955,6.294-10.88-1.24-4.58-3.776-8.987-5.033-16.817C102.644,319.644,102.583,303.068,102.242,303.068Z" transform="translate(-20.319 -280.232)" fill="none" stroke="#fff" stroke-linecap="round" stroke-width="3"/>
    <path id="Path_284" data-name="Path 284" d="M92.443,303.068c-.409,0-.038,13.234-1.45,21.908-.917,5.641-3.652,11.488-5.03,16.817-1.711,6.617,2.367,10.849,6.479,10.88,4.336.028,8.445-2.955,6.3-10.88-1.244-4.58-3.776-8.987-5.036-16.817C92.849,319.644,92.787,303.068,92.443,303.068Z" transform="translate(-44.177 -280.232)" fill="none" stroke="#fff" stroke-linecap="round" stroke-width="3"/>
  </g>
</svg>
