<svg xmlns="http://www.w3.org/2000/svg" width="143.099" height="110.443" viewBox="0 0 143.099 110.443">
  <g id="Group_273" data-name="Group 273" transform="translate(-1936.77 -13011.651)">
    <g id="Group_272" data-name="Group 272" transform="translate(1938 13013)">
      <path id="Path_291" data-name="Path 291" d="M376.5,296.655s1.236,1.759,1.733,2.479c1.921,2.77,8.5,14.583,1.075,22.573-17.4,15.746-39.773-4.059-33.868-4.413s14.43-14.039,12.547-31.073c-7.751-70.152,33.627-60.028,36.24-60.893,0,0,17.22-14.018,35.446,1.535s19.283,34.32,14.3,56.832,7.8,31.465,9.256,35.727S414.926,338.194,414,310.516" transform="translate(-344.704 -219.851)" fill="none" stroke="#fff" stroke-linecap="round" stroke-width="2"/>
      <path id="Path_292" data-name="Path 292" d="M498.551,354.532h-5.167l-2.03,7.565h7.2Z" transform="translate(-409.981 -279.801)" fill="none" stroke="#fff" stroke-linecap="round" stroke-linejoin="round" stroke-width="2"/>
      <path id="Path_293" data-name="Path 293" d="M504.324,352.016l2.583-3.137h15.315l2.03,3.137V360.5l-2.214,1.845H507.092l-2.768-2.768Z" transform="translate(-415.754 -277.284)" fill="#fff" stroke="#fff" stroke-linecap="round" stroke-linejoin="round" stroke-width="4"/>
      <path id="Path_294" data-name="Path 294" d="M540.238,361c.738.092,5.536-.646,6.643,2.122s.553,17.345.738,20.3,8.672,7.749,12.178,0-2.583-14.392,2.214-17.345,10.333-1.107,10.333-1.107" transform="translate(-431.74 -282.667)" fill="none" stroke="#fff" stroke-linecap="round" stroke-width="2"/>
      <path id="Path_295" data-name="Path 295" d="M482.816,348.879s-2.768,2.215-2.768,7.2a11.457,11.457,0,0,0,2.768,7.2" transform="translate(-404.948 -277.284)" fill="none" stroke="#fff" stroke-linecap="round" stroke-width="2"/>
      <path id="Path_296" data-name="Path 296" d="M476.3,339.464s-4.67,3.737-4.67,12.144a19.336,19.336,0,0,0,4.67,12.143" transform="translate(-401.202 -273.093)" fill="none" stroke="#fff" stroke-linecap="round" stroke-width="2"/>
      <line id="Line_55" data-name="Line 55" x2="11.071" transform="translate(50.19 83.404)" fill="none" stroke="#fff" stroke-linecap="round" stroke-width="2"/>
      <line id="Line_56" data-name="Line 56" x2="5.536" transform="translate(52.957 73.071)" fill="none" stroke="#fff" stroke-linecap="round" stroke-width="2"/>
      <path id="Path_297" data-name="Path 297" d="M390.6,301.658s1.661,23.065,2.952,26.2,14.946,20.482,18.637,23.249,11.589,4.1,17.53,0a20.845,20.845,0,0,0,4.613-4.186" transform="translate(-365.131 -256.265)" fill="none" stroke="#fff" stroke-linecap="round" stroke-width="2"/>
      <path id="Path_298" data-name="Path 298" d="M415.717,320.686c-11.717,6.089-14.485-.738-14.485-.738a3.378,3.378,0,0,1-3.321,1.633" transform="translate(-368.387 -264.406)" fill="none" stroke="#fff" stroke-linecap="round" stroke-width="2"/>
      <path id="Path_299" data-name="Path 299" d="M402.838,321.915s-1.179,2-2.932,1.584" transform="translate(-368.721 -264.741)" fill="none" stroke="#fff" stroke-linecap="round" stroke-width="1"/>
      <path id="Path_300" data-name="Path 300" d="M404.719,323.394s-1.179,2-2.932,1.584" transform="translate(-368.448 -264.844)" fill="none" stroke="#fff" stroke-linecap="round" stroke-width="1"/>
      <path id="Path_301" data-name="Path 301" d="M456.616,320.686c11.717,6.089,14.485-.738,14.485-.738a3.378,3.378,0,0,0,3.321,1.633" transform="translate(-394.518 -264.406)" fill="none" stroke="#fff" stroke-linecap="round" stroke-width="2"/>
      <path id="Path_302" data-name="Path 302" d="M481.427,321.915s1.179,2,2.932,1.584" transform="translate(-406.327 -264.749)" fill="none" stroke="#fff" stroke-linecap="round" stroke-width="1"/>
      <path id="Path_303" data-name="Path 303" d="M479.546,323.394a4.247,4.247,0,0,0,1.613,1.464,1.98,1.98,0,0,0,1.319.12" transform="translate(-406.227 -264.844)" fill="none" stroke="#fff" stroke-linecap="round" stroke-width="1"/>
      <path id="Path_304" data-name="Path 304" d="M388.553,284.393s-1.292-27.493,29.339-28.416S450.3,283.5,450.3,283.5a13.322,13.322,0,0,0,.174-1.661c.711-7.989,1.05-36.39-28.89-36.382C381.534,245.47,388.553,284.393,388.553,284.393Z" transform="translate(-364.011 -231.25)" fill="none" stroke="#fff" stroke-linecap="round" stroke-width="2"/>
      <path id="Path_305" data-name="Path 305" d="M385.494,315.072s-7.012-3.457-6.766,2.2,6.766,17.345,9.533,16.053" transform="translate(-359.845 -261.733)" fill="none" stroke="#fff" stroke-linecap="round" stroke-width="2"/>
      <path id="Path_306" data-name="Path 306" d="M496.7,313.795s5.09-2.994,5.081,3.28c-.007,5.664-6.766,17.345-9.533,16.053" transform="translate(-410.378 -261.533)" fill="none" stroke="#fff" stroke-linecap="round" stroke-width="2"/>
    </g>
  </g>
</svg>
