<svg xmlns="http://www.w3.org/2000/svg" xmlns:xlink="http://www.w3.org/1999/xlink" width="137" height="137" viewBox="0 0 137 137">
  <defs>
    <filter id="Ellipse_696" x="0" y="0" width="137" height="137" filterUnits="userSpaceOnUse">
      <feOffset dy="3" input="SourceAlpha"/>
      <feGaussianBlur stdDeviation="3" result="blur"/>
      <feFlood flood-color="#c39435"/>
      <feComposite operator="in" in2="blur"/>
      <feComposite in="SourceGraphic"/>
    </filter>
    <linearGradient id="linear-gradient" y1="0.5" x2="1" y2="0.5" gradientUnits="objectBoundingBox">
      <stop offset="0" stop-color="#ba973b"/>
      <stop offset="0.123" stop-color="#a57d24"/>
      <stop offset="0.262" stop-color="#f1dd80"/>
      <stop offset="0.367" stop-color="#f1dd80"/>
      <stop offset="0.471" stop-color="#dabf64"/>
      <stop offset="0.599" stop-color="#c3a348"/>
      <stop offset="0.725" stop-color="#b28e34"/>
      <stop offset="0.85" stop-color="#a88128"/>
      <stop offset="0.969" stop-color="#a57d24"/>
    </linearGradient>
    <linearGradient id="linear-gradient-2" y1="0.5" x2="1" y2="0.5" gradientUnits="objectBoundingBox">
      <stop offset="0.031" stop-color="#a57d24"/>
      <stop offset="0.395" stop-color="#dabf64"/>
      <stop offset="0.55" stop-color="#f1dd80"/>
      <stop offset="0.623" stop-color="#ecd77a"/>
      <stop offset="0.738" stop-color="#f1dd80"/>
      <stop offset="0.867" stop-color="#a57d24"/>
      <stop offset="1" stop-color="#ba973b"/>
    </linearGradient>
  </defs>
  <g id="Group_343" data-name="Group 343" transform="translate(-1377 -4287.193)">
    <g transform="matrix(1, 0, 0, 1, 1377, 4287.19)" filter="url(#Ellipse_696)">
      <circle id="Ellipse_696-2" data-name="Ellipse 696" cx="59.5" cy="59.5" r="59.5" transform="translate(9 6)" fill="#f6f8f9"/>
    </g>
    <g id="Group_176" data-name="Group 176" transform="translate(1391.78 4312.834)">
      <path id="Path_197" data-name="Path 197" d="M105.15,43.619l-.228.008-.19.01-.364.025c-.239.019-.472.042-.7.067q-.7.078-1.376.189c-.907.151-1.805.335-2.69.574a27.576,27.576,0,0,0-5.15,1.946A23.091,23.091,0,0,0,87.709,51.5l.141-1.561.122-1.663c.154-2.219.177-4.444.159-6.669-.035-2.225-.163-4.449-.359-6.671q-.165-1.665-.392-3.332-.113-.834-.248-1.671l-.141-.842c-.052-.292-.1-.547-.174-.884l-1.243-5.871L81.89,27.054c-.213.272-.366.481-.542.718l-.5.691q-.492.69-.962,1.385c-.626.928-1.239,1.86-1.815,2.814-1.15,1.906-2.26,3.831-3.251,5.817a82,82,0,0,0-5.069,12.285c-.148.466-.29.934-.428,1.4.014-3.028-.122-6.062-.408-9.081l-.227-2.139-.268-2.135L68.1,36.687l-.365-2.121c-.5-2.826-1.161-5.62-1.884-8.4-.738-2.774-1.6-5.515-2.548-8.234q-.732-2.032-1.544-4.042-.407-1.006-.841-2.008l-.445-1.006-.234-.506-.261-.538L57.158,3.91l-.029.059L57.1,3.91,54.284,9.834l-.261.538-.234.506-.445,1.006q-.435,1-.841,2.008-.814,2.011-1.544,4.042c-.947,2.717-1.81,5.458-2.548,8.234s-1.384,5.572-1.884,8.4l-.365,2.121-.326,2.126-.268,2.135-.227,2.139c-.273,2.889-.41,5.791-.41,8.689-.1-.337-.2-.676-.308-1.012a81.877,81.877,0,0,0-5.069-12.285c-.992-1.986-2.1-3.911-3.251-5.817-.576-.954-1.188-1.885-1.815-2.814q-.471-.7-.962-1.385l-.5-.691c-.177-.239-.33-.446-.542-.718L28.8,22.339,27.558,28.21c-.072.337-.122.592-.174.884l-.141.842q-.134.838-.248,1.671-.228,1.667-.392,3.332c-.2,2.223-.324,4.446-.359,6.671-.019,2.225.006,4.45.159,6.669l.122,1.663.141,1.561a23.075,23.075,0,0,0-6.739-5.065,27.627,27.627,0,0,0-5.15-1.946,27.389,27.389,0,0,0-2.69-.574q-.681-.111-1.376-.189c-.233-.025-.466-.049-.7-.067l-.364-.025-.19-.01-.228-.008L3.93,43.433l3.28,4.238c.99,1.278,2,2.587,2.984,3.894l2.991,3.91,5.961,7.831c1.975,2.617,3.934,5.244,5.816,7.918.942,1.337,1.858,2.691,2.707,4.081l.082.138,1.014,7.236H85.43l.713-6.412q.275-.485.564-.962c.851-1.391,1.766-2.745,2.707-4.081,1.882-2.675,3.842-5.3,5.816-7.918l5.961-7.831,2.991-3.91c.985-1.307,2-2.615,2.984-3.894l3.28-4.238ZM69.5,64.227q.711-2.47,1.554-4.885c.812-2.184,1.719-4.377,2.719-6.558.966-2.144,2.029-4.2,2.845-5.754.451-.844.947-1.738,1.563-2.821s1.14-1.979,1.633-2.777c.817-1.325,1.517-2.429,2.171-3.424.163,1.3.3,2.6.407,3.9A103.985,103.985,0,0,1,82.729,54.5a92.741,92.741,0,0,1-1.311,12.6c-.214,1.243-.476,2.565-.788,3.99a2.6,2.6,0,0,0-1.414,3.935H68.281a2.6,2.6,0,0,0-.426-4.407C68.358,68.461,68.9,66.331,69.5,64.227ZM50.316,56.957,50.7,54.9l.42-2.048.439-2.042.475-2.034c.669-2.7,1.374-5.394,2.195-8.049.788-2.619,2.756-8.181,2.9-8.58.085.229.174.457.257.687q1.448,3.892,2.643,7.892c.82,2.656,1.526,5.347,2.195,8.049L62.7,50.81l.439,2.042.419,2.048.381,2.056c.76,4.247,1.511,8.536,1.878,12.861-.007.232-.02.465-.028.7a2.6,2.6,0,0,0-.649,4.5H49.23a2.6,2.6,0,0,0-.768-4.547c-.007-.2-.017-.4-.023-.592C48.8,65.532,49.552,61.224,50.316,56.957ZM31.979,41.912c.108-1.3.245-2.6.407-3.9.654,1,1.354,2.1,2.17,3.424.491.8,1.011,1.68,1.633,2.777.615,1.081,1.112,1.977,1.563,2.821.816,1.551,1.878,3.61,2.845,5.754,1,2.182,1.906,4.373,2.719,6.558q.84,2.414,1.554,4.885.9,3.155,1.65,6.383a2.6,2.6,0,0,0-.429,4.408H35.335a2.6,2.6,0,0,0-1.6-3.984c-.307-1.408-.566-2.712-.778-3.941a92.558,92.558,0,0,1-1.311-12.6A103.758,103.758,0,0,1,31.979,41.912ZM17.711,51.844a16.331,16.331,0,0,1,5.531,3.208,19.339,19.339,0,0,1,5.912,9.4q.492,1.705,1.074,3.38.652,1.846,1.407,3.647a2.6,2.6,0,0,0-.629,3.541H29.041c-.029-.1-.057-.192-.087-.289-.318-1.016-.691-2.009-1.092-2.989l.009.014C26.1,65.892,17.711,51.844,17.711,51.844ZM86.5,71.755l.009-.014c-.4.979-.774,1.971-1.092,2.989-.03.1-.058.192-.087.289H83.543a2.6,2.6,0,0,0-.767-3.636q.73-1.754,1.366-3.551.582-1.674,1.074-3.38a19.339,19.339,0,0,1,5.912-9.4,16.339,16.339,0,0,1,5.531-3.208S88.268,65.892,86.5,71.755Z" transform="translate(-3.465 -3.438)" fill="url(#linear-gradient)"/>
      <g id="Group_175" data-name="Group 175" transform="translate(0.011 0.022)">
        <path id="Path_198" data-name="Path 198" d="M81.964,79.7H25.3a.453.453,0,0,1-.448-.391l-1-7.145-.035-.058c-.744-1.218-1.6-2.507-2.69-4.055-1.927-2.738-3.931-5.419-5.808-7.907L9.358,52.31,6.368,48.4c-.991-1.315-2.018-2.643-2.983-3.891L.106,40.272a.452.452,0,0,1-.045-.483.443.443,0,0,1,.419-.246l6.093.229c.247.02.486.043.722.07.458.051.928.116,1.4.192a27.857,27.857,0,0,1,7.97,2.562,23.893,23.893,0,0,1,5.968,4.23l-.025-.28-.122-1.671c-.17-2.464-.175-4.878-.16-6.706.034-2.137.152-4.331.36-6.707.112-1.133.245-2.26.394-3.354q.115-.838.249-1.681l.143-.846c.054-.3.1-.56.177-.9l1.243-5.871a.453.453,0,0,1,.8-.185l3.684,4.715c.185.238.327.428.476.63l.576.794c.346.488.664.944.97,1.4.516.765,1.189,1.776,1.826,2.832,1.4,2.318,2.406,4.121,3.268,5.85a82.446,82.446,0,0,1,4.56,10.738c.059-2,.184-4,.371-5.97l.228-2.144.269-2.143.327-2.138.366-2.129c.442-2.5,1.043-5.177,1.892-8.435.7-2.629,1.537-5.333,2.56-8.268.491-1.366,1.014-2.733,1.552-4.063.272-.672.556-1.352.846-2.019l.684-1.523.264-.545L53.226.281a.45.45,0,0,1,.407-.258.085.085,0,0,1,.03,0,.091.091,0,0,1,.03,0A.452.452,0,0,1,54.1.281l3.313,6.973.448,1.013c.286.659.57,1.338.847,2.022.535,1.323,1.057,2.689,1.551,4.058,1.024,2.94,1.861,5.644,2.56,8.269.851,3.267,1.452,5.946,1.892,8.435l.365,2.122.327,2.135.27,2.146L65.9,39.6c.2,2.084.324,4.19.38,6.295a82.527,82.527,0,0,1,4.67-11.061c.86-1.722,1.868-3.526,3.266-5.845.639-1.059,1.312-2.07,1.826-2.832.306-.453.632-.921.968-1.394l.57-.786c.153-.206.3-.4.484-.64l3.684-4.715a.453.453,0,0,1,.8.185l1.243,5.871c.073.343.123.6.176.9l.143.847q.136.848.25,1.685c.149,1.093.282,2.219.394,3.349.21,2.387.328,4.581.36,6.71.015,1.831.01,4.246-.16,6.707l-.147,1.953A23.913,23.913,0,0,1,90.778,42.6a27.857,27.857,0,0,1,7.968-2.561c.47-.076.942-.141,1.4-.192.238-.027.475-.05.72-.068l.8-.045,5.295-.185a.441.441,0,0,1,.42.246.452.452,0,0,1-.045.483l-3.28,4.238c-.957,1.236-1.976,2.555-2.981,3.889l-2.993,3.912-5.96,7.831c-1.877,2.488-3.882,5.17-5.807,7.9-1.09,1.548-1.946,2.837-2.692,4.057-.172.286-.343.576-.51.869l-.7,6.319A.449.449,0,0,1,81.964,79.7ZM25.692,78.79H81.557l.667-6.01a.439.439,0,0,1,.057-.174c.185-.327.377-.65.569-.971.758-1.24,1.624-2.545,2.726-4.109,1.933-2.745,3.941-5.434,5.825-7.93l5.962-7.834,2.992-3.911c1.006-1.335,2.027-2.656,2.985-3.895l2.688-3.474-5.1.194q-.346.028-.686.066c-.443.049-.9.111-1.352.185A26.952,26.952,0,0,0,91.187,43.4a22.709,22.709,0,0,0-6.607,4.966.453.453,0,0,1-.787-.345l.141-1.561.121-1.656c.168-2.429.173-4.821.158-6.632-.032-2.1-.149-4.275-.357-6.636-.11-1.112-.241-2.228-.389-3.311q-.113-.829-.247-1.661l-.14-.839c-.051-.284-.1-.534-.17-.866l-1.042-4.919-3.086,3.949c-.184.235-.322.422-.47.622l-.562.774c-.33.464-.651.927-.953,1.373-.509.753-1.174,1.752-1.8,2.794-1.385,2.3-2.383,4.081-3.233,5.786a81.575,81.575,0,0,0-5.042,12.221c-.147.462-.287.927-.425,1.393a.453.453,0,0,1-.888-.131c.014-3.011-.123-6.05-.406-9.035l-.227-2.133-.268-2.126-.323-2.115L63.818,31.2c-.436-2.464-1.033-5.121-1.876-8.361-.693-2.6-1.523-5.285-2.538-8.2-.488-1.354-1-2.708-1.537-4.02-.273-.676-.555-1.349-.837-2l-.674-1.5-.257-.53L53.662,1.468l-2.93,6.164-.442,1c-.285.657-.567,1.329-.836,2-.534,1.319-1.051,2.673-1.538,4.025-1.014,2.909-1.844,5.591-2.537,8.2-.842,3.233-1.439,5.89-1.876,8.361l-.365,2.118-.324,2.118-.267,2.123L42.322,39.7c-.27,2.853-.408,5.763-.408,8.641a.453.453,0,0,1-.887.131l-.064-.211c-.08-.265-.159-.531-.243-.794a81.613,81.613,0,0,0-5.04-12.215c-.853-1.709-1.851-3.494-3.235-5.79-.627-1.038-1.292-2.038-1.8-2.794-.3-.447-.614-.9-.955-1.377l-.567-.782c-.146-.2-.283-.381-.462-.612l-3.086-3.949-1.042,4.919c-.071.331-.119.583-.17.87l-.14.838q-.132.827-.246,1.657c-.147,1.082-.279,2.2-.389,3.315-.207,2.351-.324,4.522-.357,6.634-.015,1.809-.01,4.2.158,6.631l.122,1.662.14,1.553a.453.453,0,0,1-.787.345,22.7,22.7,0,0,0-6.607-4.964,26.875,26.875,0,0,0-5.066-1.913,27.037,27.037,0,0,0-2.644-.564c-.453-.074-.909-.137-1.351-.185-.227-.025-.455-.048-.69-.066l-.763-.043-4.329-.152L4.1,43.959c.968,1.25,2,2.582,2.987,3.9l2.989,3.908L16.037,59.6c1.883,2.5,3.893,5.182,5.827,7.932,1.1,1.564,1.968,2.868,2.724,4.106l.082.139a.436.436,0,0,1,.061.172Zm56.175-6.757H80.079a.453.453,0,0,1-.377-.706,2.146,2.146,0,0,0-.634-3,.453.453,0,0,1-.174-.556c.5-1.192.953-2.38,1.358-3.528.379-1.087.737-2.217,1.066-3.355a19.766,19.766,0,0,1,6.053-9.617,16.713,16.713,0,0,1,5.686-3.295.454.454,0,0,1,.528.664c-.083.139-8.309,13.937-10.092,19.729a.5.5,0,0,1-.029.107c-.455,1.114-.8,2.051-1.079,2.952l-.086.285A.454.454,0,0,1,81.866,72.033Zm-1.06-.905h.724c.28-.9.621-1.83,1.067-2.926l0-.014c1.493-4.952,7.525-15.448,9.55-18.9a16.67,16.67,0,0,0-4.192,2.673,18.854,18.854,0,0,0-5.771,9.18c-.333,1.154-.7,2.3-1.081,3.4-.373,1.059-.79,2.15-1.24,3.247a3.035,3.035,0,0,1,1.1,2.348A3.074,3.074,0,0,1,80.806,71.128Zm-5.056.905H64.815a.453.453,0,0,1-.273-.813,2.143,2.143,0,0,0-.352-3.64.453.453,0,0,1-.241-.51c.54-2.307,1.081-4.4,1.654-6.4h0c.46-1.6.985-3.251,1.561-4.908.827-2.226,1.746-4.444,2.735-6.6.97-2.153,2.036-4.218,2.855-5.776.45-.84.948-1.741,1.57-2.833s1.146-1.989,1.641-2.79c.831-1.347,1.523-2.438,2.177-3.435a.453.453,0,0,1,.829.192c.163,1.3.3,2.618.409,3.92a104.372,104.372,0,0,1,.337,12.637A92.926,92.926,0,0,1,78.4,63.732c-.216,1.248-.474,2.56-.793,4.01a.453.453,0,0,1-.312.337,2.163,2.163,0,0,0-1.53,2.057,2.141,2.141,0,0,0,.362,1.192.453.453,0,0,1-.377.7Zm-9.913-.905h9.187a3.038,3.038,0,0,1-.165-.991A3.079,3.079,0,0,1,76.775,67.3c.291-1.34.53-2.561.731-3.725a92.064,92.064,0,0,0,1.3-12.535,103.333,103.333,0,0,0-.335-12.529c-.073-.878-.16-1.763-.258-2.643-.453.708-.938,1.48-1.483,2.364-.488.791-1,1.67-1.624,2.763S74,42.976,73.554,43.807c-.812,1.544-1.87,3.592-2.831,5.726-.98,2.138-1.891,4.334-2.707,6.53-.567,1.632-1.087,3.267-1.542,4.851h0c-.541,1.892-1.053,3.869-1.564,6.033a3.05,3.05,0,0,1,.928,4.181Zm-4.16.905H45.765a.453.453,0,0,1-.273-.813,2.146,2.146,0,0,0-.633-3.756.453.453,0,0,1-.313-.415l-.01-.27c0-.108-.009-.217-.013-.323a.392.392,0,0,1,0-.052c.356-4.248,1.063-8.384,1.882-12.964,0,0,0,0,0,0l.382-2.056.422-2.057.44-2.047.476-2.041c.553-2.231,1.3-5.159,2.2-8.081.786-2.611,2.758-8.187,2.908-8.6a.452.452,0,0,1,.424-.3h0a.451.451,0,0,1,.424.3l.108.289c.051.133.1.268.151.4.935,2.514,1.827,5.178,2.651,7.916.9,2.916,1.649,5.845,2.2,8.071l.476,2.04.442,2.05.421,2.052.384,2.065c.67,3.741,1.5,8.393,1.884,12.9a.272.272,0,0,1,0,.053c0,.125-.009.25-.014.375l-.013.322a.453.453,0,0,1-.292.408A2.161,2.161,0,0,0,61.1,69.51a2.133,2.133,0,0,0,.854,1.712.452.452,0,0,1,.155.505A.458.458,0,0,1,61.677,72.033Zm-14.89-.905H60.655a3.023,3.023,0,0,1-.464-1.619,3.07,3.07,0,0,1,1.693-2.731l0-.044.014-.34c-.381-4.462-1.208-9.081-1.872-12.792l-.381-2.053-.418-2.04-.438-2.038-.473-2.026c-.547-2.209-1.292-5.122-2.187-8.019-.766-2.549-1.592-5.031-2.457-7.386C53.02,31.9,51.78,35.484,51.2,37.422c-.9,2.9-1.641,5.815-2.189,8.028l-.474,2.028L48.1,49.513l-.42,2.044L47.3,53.6c-.814,4.546-1.516,8.653-1.869,12.853l.01.265a3.053,3.053,0,0,1,1.349,4.407Zm-4.161.905H31.869a.453.453,0,0,1-.377-.7,2.138,2.138,0,0,0,.362-1.192,2.161,2.161,0,0,0-1.685-2.1.454.454,0,0,1-.345-.345c-.312-1.427-.567-2.722-.781-3.961a93.112,93.112,0,0,1-1.318-12.658,104.411,104.411,0,0,1,.337-12.639c.109-1.3.246-2.62.409-3.919a.453.453,0,0,1,.829-.192c.659,1,1.351,2.1,2.177,3.435.49.794,1.012,1.681,1.641,2.792.618,1.085,1.116,1.984,1.568,2.83.822,1.56,1.887,3.625,2.859,5.78.987,2.152,1.906,4.37,2.731,6.587.577,1.661,1.1,3.312,1.564,4.916.581,2.031,1.123,4.127,1.656,6.4a.453.453,0,0,1-.242.51,2.144,2.144,0,0,0-.353,3.641.454.454,0,0,1-.276.815ZM32.6,71.128H41.6a3.055,3.055,0,0,1,.932-4.182c-.505-2.137-1.019-4.113-1.567-6.032-.458-1.589-.978-3.224-1.546-4.86-.813-2.187-1.724-4.384-2.7-6.518C35.758,47.4,34.7,45.35,33.888,43.8c-.447-.837-.942-1.729-1.556-2.807-.625-1.1-1.141-1.978-1.625-2.764-.543-.881-1.028-1.653-1.483-2.364-.1.881-.184,1.764-.257,2.641v0a103.548,103.548,0,0,0-.334,12.529,92.047,92.047,0,0,0,1.3,12.534c.2,1.148.433,2.348.716,3.655a3.074,3.074,0,0,1,2.109,2.9A3.149,3.149,0,0,1,32.6,71.128ZM28.513,38.474h0ZM27.54,72.033H25.575a.451.451,0,0,1-.433-.322l-.027-.088c-.02-.065-.038-.13-.059-.195-.282-.905-.625-1.843-1.079-2.953a.442.442,0,0,1-.029-.107c-1.783-5.792-10.009-19.59-10.092-19.729a.454.454,0,0,1,.528-.664A16.691,16.691,0,0,1,20.07,51.27a19.75,19.75,0,0,1,6.053,9.617c.328,1.139.687,2.268,1.066,3.357.416,1.179.887,2.4,1.4,3.621a.452.452,0,0,1-.151.54,2.144,2.144,0,0,0-.52,2.925.451.451,0,0,1-.375.7Zm-1.628-.905h.9a3.051,3.051,0,0,1,.809-3.223c-.468-1.136-.9-2.264-1.287-3.362s-.75-2.25-1.082-3.406a18.864,18.864,0,0,0-5.771-9.18,16.659,16.659,0,0,0-4.192-2.673c2.026,3.454,8.057,13.951,9.55,18.9l0,.014C25.289,69.293,25.629,70.226,25.912,71.128Z" transform="translate(-0.011 -0.022)" fill="url(#linear-gradient-2)"/>
      </g>
    </g>
  </g>
</svg>
