<svg id="Group_145" data-name="Group 145" xmlns="http://www.w3.org/2000/svg" width="217.339" height="33.318" viewBox="0 0 217.339 33.318">
  <g id="Group_74" data-name="Group 74" transform="translate(0 0)">
    <path id="Path_81" data-name="Path 81" d="M62.215,104.175c.15,1.05-.5,1.519-1.449,1.044l-7.883-3.972a4.376,4.376,0,0,0-3.457-.017l-7.918,3.905c-.952.469-1.6-.006-1.438-1.059l1.339-8.722a4.376,4.376,0,0,0-1.053-3.292L34.2,85.739c-.743-.764-.492-1.525.558-1.7l8.713-1.42a4.391,4.391,0,0,0,2.8-2.022l4.114-7.811c.495-.94,1.3-.934,1.782.009l4.044,7.846A4.37,4.37,0,0,0,59,82.687l8.7,1.5c1.044.182,1.29.949.544,1.7l-6.214,6.272a4.373,4.373,0,0,0-1.082,3.283Z" transform="translate(-33.77 -72.087)" fill="#c39435"/>
    <path id="Path_82" data-name="Path 82" d="M51.277,72.522c.165,0,.353.176.506.474l4.044,7.848a4.789,4.789,0,0,0,3.1,2.271l8.7,1.5c.33.052.558.179.6.338s-.058.391-.3.628l-6.211,6.272a4.78,4.78,0,0,0-1.2,3.651l1.264,8.734a.849.849,0,0,1-.093.645.292.292,0,0,1-.243.09,1.183,1.183,0,0,1-.492-.139l-7.883-3.972a4.79,4.79,0,0,0-3.842-.017l-7.918,3.9a1.161,1.161,0,0,1-.486.139.291.291,0,0,1-.246-.1.848.848,0,0,1-.09-.642l1.342-8.725a4.784,4.784,0,0,0-1.172-3.66l-6.159-6.327c-.234-.24-.341-.477-.292-.631s.281-.281.61-.336l8.713-1.42A4.793,4.793,0,0,0,46.657,80.8l4.111-7.814c.156-.292.347-.469.509-.469m0-.434c-.324,0-.645.234-.891.7L46.273,80.6a4.392,4.392,0,0,1-2.8,2.022l-8.713,1.42c-1.05.171-1.3.932-.558,1.7l6.159,6.324a4.376,4.376,0,0,1,1.053,3.292l-1.339,8.722c-.122.778.2,1.238.761,1.238a1.538,1.538,0,0,0,.677-.179l7.918-3.905a4.41,4.41,0,0,1,3.457.017l7.883,3.972a1.587,1.587,0,0,0,.686.185c.553,0,.874-.457.764-1.229l-1.264-8.737a4.373,4.373,0,0,1,1.082-3.283l6.214-6.272c.746-.752.5-1.519-.544-1.7l-8.7-1.5a4.37,4.37,0,0,1-2.789-2.042L52.168,72.8c-.243-.474-.564-.712-.891-.712Z" transform="translate(-33.77 -72.088)" fill="#c39435" opacity="0.5" style="mix-blend-mode: multiply;isolation: isolate"/>
  </g>
  <g id="Group_75" data-name="Group 75" transform="translate(45.609 0)">
    <path id="Path_83" data-name="Path 83" d="M77.982,104.175c.15,1.05-.5,1.519-1.449,1.044l-7.883-3.972a4.383,4.383,0,0,0-3.46-.017l-7.918,3.905c-.952.469-1.6-.006-1.438-1.059l1.342-8.722a4.387,4.387,0,0,0-1.053-3.292l-6.162-6.324c-.741-.764-.489-1.525.558-1.7l8.713-1.42a4.384,4.384,0,0,0,2.8-2.022L66.15,72.79c.495-.94,1.3-.934,1.785.009l4.041,7.846a4.385,4.385,0,0,0,2.789,2.042l8.7,1.5c1.047.182,1.29.949.544,1.7L77.8,92.155a4.385,4.385,0,0,0-1.082,3.283Z" transform="translate(-49.536 -72.087)" fill="#c39435"/>
    <path id="Path_84" data-name="Path 84" d="M67.041,72.522c.165,0,.356.176.509.474l4.041,7.848a4.794,4.794,0,0,0,3.1,2.271l8.7,1.5c.33.052.555.179.6.338s-.061.391-.3.628L77.49,91.852a4.791,4.791,0,0,0-1.2,3.651l1.264,8.734a.849.849,0,0,1-.093.645.292.292,0,0,1-.243.09,1.183,1.183,0,0,1-.489-.139l-7.883-3.972A4.8,4.8,0,0,0,65,100.843l-7.915,3.9a1.172,1.172,0,0,1-.486.139.294.294,0,0,1-.249-.1.837.837,0,0,1-.087-.642L57.6,95.422a4.775,4.775,0,0,0-1.175-3.66l-6.159-6.327c-.234-.24-.341-.477-.292-.631s.281-.281.61-.336l8.713-1.42A4.793,4.793,0,0,0,62.421,80.8l4.114-7.814c.153-.292.344-.469.506-.469m0-.434a1.093,1.093,0,0,0-.891.7L62.036,80.6a4.384,4.384,0,0,1-2.8,2.022l-8.713,1.42c-1.047.171-1.3.932-.558,1.7l6.162,6.324a4.387,4.387,0,0,1,1.053,3.292l-1.342,8.722c-.119.778.2,1.238.764,1.238a1.527,1.527,0,0,0,.674-.179l7.918-3.905a4.417,4.417,0,0,1,3.46.017l7.883,3.972a1.575,1.575,0,0,0,.683.185c.555,0,.877-.457.767-1.229l-1.267-8.737A4.385,4.385,0,0,1,77.8,92.156l6.214-6.272c.746-.752.5-1.519-.544-1.7l-8.7-1.5a4.385,4.385,0,0,1-2.789-2.042L67.935,72.8c-.246-.474-.567-.712-.894-.712Z" transform="translate(-49.536 -72.088)" fill="#c39435" opacity="0.5" style="mix-blend-mode: multiply;isolation: isolate"/>
  </g>
  <g id="Group_76" data-name="Group 76" transform="translate(91.215 0)">
    <path id="Path_85" data-name="Path 85" d="M93.747,104.175c.153,1.05-.5,1.519-1.449,1.044l-7.883-3.972a4.376,4.376,0,0,0-3.457-.017l-7.918,3.905c-.955.469-1.6-.006-1.441-1.059l1.342-8.722a4.375,4.375,0,0,0-1.053-3.292l-6.162-6.324c-.741-.764-.489-1.525.558-1.7L75,82.623A4.39,4.39,0,0,0,77.8,80.6l4.111-7.811c.495-.94,1.3-.934,1.785.009l4.044,7.846a4.37,4.37,0,0,0,2.789,2.042l8.7,1.5c1.047.182,1.293.949.544,1.7l-6.214,6.272a4.409,4.409,0,0,0-1.082,3.283Z" transform="translate(-65.301 -72.087)" fill="#c39435"/>
    <path id="Path_86" data-name="Path 86" d="M82.806,72.522c.168,0,.356.176.509.474l4.044,7.848a4.789,4.789,0,0,0,3.1,2.271l8.7,1.5c.33.052.555.179.6.338s-.061.391-.3.628l-6.214,6.272a4.792,4.792,0,0,0-1.2,3.651l1.267,8.734a.847.847,0,0,1-.1.645.286.286,0,0,1-.243.09,1.183,1.183,0,0,1-.489-.139l-7.883-3.972a4.79,4.79,0,0,0-3.842-.017l-7.918,3.9a1.161,1.161,0,0,1-.486.139.3.3,0,0,1-.249-.1.85.85,0,0,1-.087-.642l1.342-8.725a4.784,4.784,0,0,0-1.172-3.66l-6.159-6.327c-.234-.24-.344-.477-.292-.631s.281-.281.61-.336l8.711-1.42A4.779,4.779,0,0,0,78.186,80.8L82.3,72.991c.156-.292.344-.469.506-.469m0-.434a1.1,1.1,0,0,0-.891.7L77.8,80.6A4.39,4.39,0,0,1,75,82.624l-8.713,1.42c-1.047.171-1.3.932-.558,1.7l6.162,6.324a4.375,4.375,0,0,1,1.053,3.292L71.6,104.078c-.119.778.2,1.238.764,1.238a1.547,1.547,0,0,0,.677-.179l7.918-3.905a4.41,4.41,0,0,1,3.457.017L92.3,105.22a1.586,1.586,0,0,0,.683.185c.555,0,.877-.457.767-1.229L92.48,95.439a4.409,4.409,0,0,1,1.082-3.283l6.214-6.272c.749-.752.5-1.519-.544-1.7l-8.7-1.5a4.37,4.37,0,0,1-2.789-2.042L83.7,72.8c-.246-.474-.567-.712-.894-.712Z" transform="translate(-65.301 -72.088)" fill="#c39435" opacity="0.5" style="mix-blend-mode: multiply;isolation: isolate"/>
  </g>
  <g id="Group_77" data-name="Group 77" transform="translate(136.824 0)">
    <path id="Path_87" data-name="Path 87" d="M109.511,104.175c.153,1.05-.5,1.519-1.449,1.044l-7.883-3.972a4.376,4.376,0,0,0-3.457-.017L88.8,105.136c-.952.469-1.6-.006-1.438-1.059l1.342-8.722a4.389,4.389,0,0,0-1.056-3.292l-6.159-6.324c-.741-.764-.492-1.525.558-1.7l8.711-1.42A4.383,4.383,0,0,0,93.568,80.6l4.114-7.811c.495-.94,1.3-.934,1.782.009l4.044,7.846a4.378,4.378,0,0,0,2.789,2.042l8.7,1.5c1.05.182,1.293.949.547,1.7l-6.217,6.272a4.409,4.409,0,0,0-1.082,3.283Z" transform="translate(-81.067 -72.087)" fill="#c39435"/>
    <path id="Path_88" data-name="Path 88" d="M98.573,72.522c.165,0,.353.176.506.474l4.044,7.848a4.787,4.787,0,0,0,3.1,2.271l8.7,1.5c.33.052.555.179.608.338s-.061.391-.3.628l-6.211,6.272a4.78,4.78,0,0,0-1.2,3.651l1.264,8.734a.862.862,0,0,1-.093.645.292.292,0,0,1-.243.09,1.16,1.16,0,0,1-.489-.139l-7.886-3.972a4.79,4.79,0,0,0-3.842-.017l-7.918,3.9a1.161,1.161,0,0,1-.486.139.291.291,0,0,1-.246-.1.848.848,0,0,1-.09-.642l1.342-8.725a4.784,4.784,0,0,0-1.172-3.66L81.8,85.436c-.234-.24-.341-.477-.292-.631s.281-.281.61-.336l8.713-1.42A4.786,4.786,0,0,0,93.953,80.8l4.111-7.814c.156-.292.347-.469.509-.469m0-.434a1.093,1.093,0,0,0-.891.7L93.568,80.6a4.383,4.383,0,0,1-2.806,2.022l-8.711,1.42c-1.05.171-1.3.932-.558,1.7l6.159,6.324a4.389,4.389,0,0,1,1.056,3.292l-1.342,8.722c-.122.778.2,1.238.761,1.238a1.528,1.528,0,0,0,.677-.179l7.918-3.905a4.41,4.41,0,0,1,3.457.017l7.883,3.972a1.587,1.587,0,0,0,.686.185c.553,0,.877-.457.764-1.229l-1.267-8.737a4.408,4.408,0,0,1,1.082-3.283l6.217-6.272c.746-.752.5-1.519-.547-1.7l-8.7-1.5a4.378,4.378,0,0,1-2.789-2.042L99.464,72.8c-.243-.474-.564-.712-.891-.712Z" transform="translate(-81.067 -72.088)" fill="#c39435" opacity="0.5" style="mix-blend-mode: multiply;isolation: isolate"/>
  </g>
  <g id="Group_78" data-name="Group 78" transform="translate(182.431 0)">
    <path id="Path_89" data-name="Path 89" d="M125.278,104.175c.15,1.05-.5,1.519-1.449,1.044l-7.883-3.972a4.376,4.376,0,0,0-3.457-.017l-7.921,3.905c-.952.469-1.6-.006-1.438-1.059l1.342-8.722a4.378,4.378,0,0,0-1.056-3.292l-6.159-6.324c-.741-.764-.489-1.525.558-1.7l8.713-1.42a4.39,4.39,0,0,0,2.806-2.022l4.111-7.811c.495-.94,1.3-.934,1.785.009l4.044,7.846a4.365,4.365,0,0,0,2.786,2.042l8.7,1.5c1.047.182,1.29.949.544,1.7L125.1,92.155a4.376,4.376,0,0,0-1.085,3.283Z" transform="translate(-96.832 -72.087)" fill="#c39435"/>
    <path id="Path_90" data-name="Path 90" d="M114.337,72.522c.165,0,.356.176.509.474l4.044,7.848a4.789,4.789,0,0,0,3.1,2.271l8.7,1.5c.327.052.555.179.6.338s-.061.391-.3.628l-6.214,6.272a4.791,4.791,0,0,0-1.2,3.651l1.267,8.734a.847.847,0,0,1-.1.645.286.286,0,0,1-.243.09,1.171,1.171,0,0,1-.489-.139l-7.886-3.972a4.79,4.79,0,0,0-3.842-.017l-7.918,3.9a1.15,1.15,0,0,1-.483.139.281.281,0,0,1-.246-.1.835.835,0,0,1-.09-.642l1.342-8.725a4.775,4.775,0,0,0-1.175-3.66l-6.159-6.327c-.234-.24-.341-.477-.289-.631s.281-.281.607-.336l8.716-1.42a4.787,4.787,0,0,0,3.116-2.245l4.111-7.814c.156-.292.347-.469.509-.469m0-.434c-.318,0-.642.234-.891.7L109.335,80.6a4.39,4.39,0,0,1-2.806,2.022l-8.713,1.42c-1.047.171-1.3.932-.558,1.7l6.159,6.324a4.378,4.378,0,0,1,1.056,3.292l-1.342,8.722c-.119.778.2,1.238.764,1.238a1.527,1.527,0,0,0,.674-.179l7.921-3.905a4.41,4.41,0,0,1,3.457.017l7.883,3.972a1.575,1.575,0,0,0,.683.185c.555,0,.877-.457.767-1.229l-1.267-8.737a4.376,4.376,0,0,1,1.085-3.283l6.211-6.272c.746-.752.5-1.519-.544-1.7l-8.7-1.5a4.365,4.365,0,0,1-2.786-2.042L115.231,72.8c-.246-.474-.567-.712-.894-.712Z" transform="translate(-96.832 -72.088)" fill="#c39435" opacity="0.5" style="mix-blend-mode: multiply;isolation: isolate"/>
  </g>
</svg>
