<svg xmlns="http://www.w3.org/2000/svg" width="126.147" height="110.678" viewBox="0 0 126.147 110.678">
  <g id="Group_271" data-name="Group 271" transform="translate(-851.459 -1257.127)">
    <path id="Path_285" data-name="Path 285" d="M197.077,625.285s-20.112-3.723-52.99-26.495c0,0-1.6-2.873-6.917-1.065s-11.066-1.7-10.535-7.342-6.064-10.748-8.619-13.195a7.928,7.928,0,0,1-1.382-10c2.127-3.831,3.937-1.065,3.831,0s12.875,14.577,27.878,19.578,49.8,14.046,53.735,13.515" transform="translate(737.14 741.354)" fill="none" stroke="#fff" stroke-linecap="round" stroke-width="2"/>
    <path id="Path_286" data-name="Path 286" d="M176.428,606s-8.774-3.748-19.68-31.417c0,0,.061-3.287-5.449-4.391s-8.718-7.027-5.427-11.637.147-12.34-.833-15.739a7.929,7.929,0,0,1,3.823-9.345c3.763-2.246,3.94,1.055,3.314,1.922s3.821,19.07,14.288,30.926,36.024,37.14,39.7,38.656" transform="translate(745.281 732.251)" fill="none" stroke="#fff" stroke-linecap="round" stroke-width="2"/>
    <g id="Group_270" data-name="Group 270">
      <path id="Path_287" data-name="Path 287" d="M182.6,562.224l-1.17-2.574,2.836-1.206A3.22,3.22,0,0,1,186.4,554.8c2.74-1.2,9.125-3.778,9.125-3.778l.283-4.188.028-.413-.266-.365-4.39-6.019,1.206-11.6a1.505,1.505,0,0,1,1.668-1.454c1.6.106,9.931.957,9.931.957s1.7.212,1.454,1.667-1.56,11.953-1.56,11.953l-5.063,4.655-.648.6.014.554.058,2.46,5.321-2.341,3.086,7.059,7.2-2.909,1.348,3.228L211.4,556.6l9.878,16.315-6.917,3.013-9.923-16.876-3.085,1.361-.932-1.969,2.035-.864-.4-.984-12.33,5.307a3.658,3.658,0,0,1-4.443-.851Z" transform="translate(755.606 730.648)" fill="none" stroke="#fff" stroke-linecap="round" stroke-width="1"/>
      <path id="Path_288" data-name="Path 288" d="M201.06,543.208l.851,2-1.936.857-.88-2.014Z" transform="translate(760.552 735.191)" fill="none" stroke="#fff" stroke-linecap="round" stroke-width="1"/>
      <line id="Line_42" data-name="Line 42" y1="1.404" x2="3.329" transform="translate(962.007 1277.921)" fill="none" stroke="#fff" stroke-linecap="round" stroke-width="1"/>
      <path id="Path_289" data-name="Path 289" d="M203.208,542.208l.958,2.235,3.033-1.3-.9-2.155Z" transform="translate(761.703 734.569)" fill="none" stroke="#fff" stroke-linecap="round" stroke-width="1"/>
      <line id="Line_43" data-name="Line 43" x2="3.325" y2="7.103" transform="translate(942.007 1285.449)" fill="none" stroke="#fff" stroke-linecap="round" stroke-width="1"/>
      <line id="Line_44" data-name="Line 44" x2="3.153" y2="6.869" transform="translate(948.289 1282.895)" fill="none" stroke="#fff" stroke-linecap="round" stroke-width="1"/>
      <line id="Line_45" data-name="Line 45" x2="1.754" y2="3.302" transform="translate(954.368 1280.271)" fill="none" stroke="#fff" stroke-linecap="round" stroke-width="1"/>
      <line id="Line_46" data-name="Line 46" x2="1.754" y2="3.302" transform="translate(955.855 1279.674)" fill="none" stroke="#fff" stroke-linecap="round" stroke-width="1"/>
      <line id="Line_47" data-name="Line 47" x2="1.754" y2="3.302" transform="translate(957.259 1279.105)" fill="none" stroke="#fff" stroke-linecap="round" stroke-width="1"/>
      <line id="Line_48" data-name="Line 48" y1="1.638" x2="3.799" transform="translate(965.256 1291.096)" fill="none" stroke="#fff" stroke-linecap="round" stroke-width="1"/>
      <line id="Line_49" data-name="Line 49" y1="1.638" x2="3.799" transform="translate(968.006 1295.324)" fill="none" stroke="#fff" stroke-linecap="round" stroke-width="1"/>
      <line id="Line_50" data-name="Line 50" y1="1.638" x2="3.799" transform="translate(970.62 1299.862)" fill="none" stroke="#fff" stroke-linecap="round" stroke-width="1"/>
      <line id="Line_51" data-name="Line 51" y1="0.029" x2="2.528" transform="translate(951.289 1279.306)" fill="none" stroke="#fff" stroke-linecap="round" stroke-width="1"/>
      <path id="Path_290" data-name="Path 290" d="M194.54,551.646s3.023,6.677,4.006,9.208a1.094,1.094,0,0,1-.507,1.495,1.046,1.046,0,0,1-1.442-.614c-.15-.3-.792-1.176-1.471-.832-.726.369-.722,2.035,1.2,3.1a2.689,2.689,0,0,0,2.277.086c1.77-.76,2.326-1.946,1.263-4.6-.986-2.463-3.9-8.558-3.9-8.558Z" transform="translate(759.277 737.354)" fill="none" stroke="#fff" stroke-linecap="round" stroke-width="1"/>
      <line id="Line_52" data-name="Line 52" x1="11.138" y1="3.37" transform="translate(923.04 1288.49)" fill="none" stroke="#fff" stroke-linecap="round" stroke-width="1"/>
      <line id="Line_53" data-name="Line 53" x1="8.277" y2="3.398" transform="translate(926.345 1293.152)" fill="none" stroke="#fff" stroke-linecap="round" stroke-width="1"/>
      <line id="Line_54" data-name="Line 54" x1="4.331" y2="10.434" transform="translate(930.821 1294.415)" fill="none" stroke="#fff" stroke-linecap="round" stroke-width="1"/>
      <circle id="Ellipse_733" data-name="Ellipse 733" cx="1.401" cy="1.401" r="1.401" transform="translate(963.067 1288.362)" fill="none" stroke="#fff" stroke-linecap="round" stroke-width="1"/>
    </g>
  </g>
</svg>
